{"title":"Welcome.to.the.Punch.2013.WEBrip.Xvid-Ac3-MiLLENiUM","uid":8340396,"size":1702479379,"categoryP":"video","categoryS":"movies","magnet":"?xt=urn:btih:0e2c270cad0ca9f21e8048a1dcdb678ce964190d&amp;dn=Welcome.to.the.Punch.2013.WEBrip.Xvid-Ac3-MiLLENiUM&amp;tr=udp%3A%2F%2Ftracker.openbittorrent.com%3A80&amp;tr=udp%3A%2F%2Fopen.demonii.com%3A1337&amp;tr=udp%3A%2F%2Ftracker.coppersurfer.tk%3A6969&amp;tr=udp%3A%2F%2Fexodus.desync.com%3A6969","seeders":1,"leechers":1,"uploader":"Gh0stNet","files":11,"time":1365086494,"description":"General\nComplete name                            : Welcome.to.the.Punch.2013.WEBrip.Xvid-Ac3-MiLLENiUM.avi\nSource                                   : Welcome to the Punch[2013]WEBRip H264-ETRG [Thanks]\nFormat                                   : AVI\nFormat/Info                              : Audio Video Interleave\nFile size                                : 1.50 GiB\nDuration                                 : 1h 39mn\nOverall bit rate                         : 2 153 Kbps\nWriting application                      : VirtualDubMod 1.5.10.2 (build 2540/release)\nWriting library                          : VirtualDubMod build 2540/release\n\nVideo\nID                                       : 0\nFormat                                   : MPEG-4 Visual\nFormat profile                           : Advanced Simple@L5\nFormat settings, BVOP                    : 2\nFormat settings, QPel                    : No\nFormat settings, GMC                     : No warppoints\nFormat settings, Matrix                  : Default (H.263)\nMuxing mode                              : Packed bitstream\nCodec ID                                 : XVID\nCodec ID/Hint                            : XviD\nDuration                                 : 1h 39mn\nBit rate                                 : 1 695 Kbps\nWidth                                    : 720 pixels\nHeight                                   : 304 pixels\nDisplay aspect ratio                     : 2.35:1\nFrame rate                               : 23.976 fps\nColor space                              : YUV\nChroma subsampling                       : 4:2:0\nBit depth                                : 8 bits\nScan type                                : Progressive\nCompression mode                         : Lossy\nBits/(Pixel*Frame)                       : 0.323\nStream size                              : 1.18 GiB (79%)\nWriting library                          : XviD 64\n\nAudio\nID                                       : 1\nFormat                                   : AC-3\nFormat/Info                              : Audio Coding 3\nMode extension                           : CM (complete main)\nCodec ID                                 : 2000\nDuration                                 : 1h 39mn\nBit rate mode                            : Constant\nBit rate                                 : 448 Kbps\nChannel(s)                               : 6 channels\nChannel positions                        : Front: L C R, Side: L R, LFE\nSampling rate                            : 48.0 KHz\nBit depth                                : 16 bits\nCompression mode                         : Lossy\nStream size                              : 320 MiB (21%)\nAlignment                                : Split accross interleaves\nInterleave, duration                     : 42 ms (1.00 video frame)\nInterleave, preload duration             : 500 ms\n\nScreens: &lt;a href=&quot;\nhttp://i.imgur.com/3NlZ6xI.jpg&quot; rel=&quot;nofollow&quot; target=&quot;_NEW&quot;&gt;\nhttp://i.imgur.com/3NlZ6xI.jpg&lt;/a&gt; &lt;a href=&quot;\nhttp://i.imgur.com/fkGPNRs.jpg&quot; rel=&quot;nofollow&quot; target=&quot;_NEW&quot;&gt;\nhttp://i.imgur.com/fkGPNRs.jpg&lt;/a&gt; &lt;a href=&quot;\nhttp://i.imgur.com/3mAMYVx.jpg&quot; rel=&quot;nofollow&quot; target=&quot;_NEW&quot;&gt;\nhttp://i.imgur.com/3mAMYVx.jpg&lt;/a&gt; &lt;a href=&quot;\nhttp://i.imgur.com/BFjW7Hn.jpg&quot; rel=&quot;nofollow&quot; target=&quot;_NEW&quot;&gt;\nhttp://i.imgur.com/BFjW7Hn.jpg&lt;/a&gt;","torrent":{"xt":"urn:btih:0e2c270cad0ca9f21e8048a1dcdb678ce964190d","amp;dn":"Welcome.to.the.Punch.2013.WEBrip.Xvid-Ac3-MiLLENiUM","amp;tr":["udp%3A%2F%2Ftracker.openbittorrent.com%3A80","udp%3A%2F%2Fopen.demonii.com%3A1337","udp%3A%2F%2Ftracker.coppersurfer.tk%3A6969","udp%3A%2F%2Fexodus.desync.com%3A6969"],"infoHash":"0e2c270cad0ca9f21e8048a1dcdb678ce964190d","infoHashBuffer":{"type":"Buffer","data":[14,44,39,12,173,12,169,242,30,128,72,161,220,219,103,140,233,100,25,13]},"announce":[],"urlList":[]}}